<?xml version="1.0" encoding="utf-8"?>
<!-- Generator: Adobe Illustrator 17.0.0, SVG Export Plug-In . SVG Version: 6.00 Build 0)  -->
<!DOCTYPE svg PUBLIC "-//W3C//DTD SVG 1.1//EN" "http://www.w3.org/Graphics/SVG/1.1/DTD/svg11.dtd">
<svg version="1.1" id="All_glyphs" xmlns="http://www.w3.org/2000/svg" xmlns:xlink="http://www.w3.org/1999/xlink" x="0px" y="0px"
	 width="138.193px" height="144.686px" viewBox="0 0 138.193 144.686" enable-background="new 0 0 138.193 144.686"
	 xml:space="preserve">
<path d="M67.293,59.932C60.5,47.859,53.239,38.018,52.706,37.296C41.75,42.473,33.574,52.565,31.023,64.728
	C32.054,64.747,48.427,64.944,67.293,59.932z M72.185,73.128c0.514-0.163,1.029-0.318,1.549-0.467
	c-0.986-2.234-2.063-4.47-3.188-6.676c-20.229,6.054-39.642,5.615-40.332,5.598c-0.012,0.413-0.031,0.825-0.031,1.244
	c0,10.102,3.816,19.308,10.078,26.267c-0.012-0.013-0.027-0.034-0.027-0.034S50.988,79.985,72.185,73.128z M45.322,103.796
	l0.006-0.016c-0.291-0.229-0.603-0.438-0.889-0.676C44.961,103.523,45.322,103.796,45.322,103.796z M60.056,34.687
	c-0.035,0.008-0.07,0.017-0.104,0.024c0.061-0.015,0.097-0.021,0.097-0.021L60.056,34.687z M95.412,43.345
	c-6.918-6.096-15.998-9.802-25.945-9.802c-3.191,0-6.287,0.391-9.256,1.107c0.598,0.792,7.971,10.589,14.686,22.918
	C89.709,52.016,95.308,43.506,95.412,43.345z M69.466,118.828c-25.404,0-46-20.597-46-46c0-25.404,20.596-46,46-46
	c25.406,0,46,20.596,46,46C115.466,98.231,94.873,118.828,69.466,118.828z M76.15,79.256c-23.057,8.033-30.668,24.193-30.822,24.525
	c6.664,5.204,15.029,8.331,24.139,8.331c5.441,0,10.623-1.107,15.335-3.108c-0.581-3.444-2.867-15.476-8.392-29.835
	C76.324,79.199,76.238,79.224,76.15,79.256z M77.918,63.421c0.918,1.874,1.795,3.777,2.611,5.698
	c0.291,0.678,0.572,1.355,0.848,2.029c13.568-1.706,26.925,1.189,27.362,1.284c-0.093-9.323-3.423-17.869-8.935-24.56
	C99.724,47.991,93.422,57.09,77.918,63.421z M83.771,77.351c5.16,14.177,7.25,25.709,7.646,28.059
	c8.82-5.956,15.088-15.397,16.834-26.351C107.47,78.807,96.472,75.318,83.771,77.351z"/>
</svg>
