<?xml version="1.0" encoding="utf-8"?>
<!-- Generator: Adobe Illustrator 19.0.0, SVG Export Plug-In . SVG Version: 6.00 Build 0)  -->
<svg version="1.1" id="Layer_1" xmlns="http://www.w3.org/2000/svg" xmlns:xlink="http://www.w3.org/1999/xlink" x="0px" y="0px"
	 viewBox="0 0 50 50" style="enable-background:new 0 0 50 50;" xml:space="preserve">
<path id="XMLID_4_" style="fill:#010101;" d="M45.4,8.4C40.7,4,33,4,28.2,8.4l-3.2,3l-3.2-3C17,4,9.3,4,4.6,8.4
	c-5.3,4.9-5.3,12.9,0,17.8L25,44.9l20.4-18.8C50.8,21.2,50.8,13.3,45.4,8.4z M42.4,23.2L25,39.5L7.6,23.2c-1.8-1.6-2.4-3.7-2.4-6
	c0-2.2,0.4-4.1,2.1-5.7c1.6-1.4,3.6-2.2,5.9-2.2c2.2,0,4.3,1.4,5.9,2.8l6,5.2l6-5.2c1.6-1.4,3.6-2.8,5.9-2.8c2.2,0,4.3,0.8,5.9,2.2
	c1.8,1.6,2.1,3.4,2.1,5.7C44.9,19.5,44.2,21.6,42.4,23.2z"/>
</svg>
