<?xml version="1.0" encoding="utf-8"?>
<!-- Generator: Adobe Illustrator 19.0.0, SVG Export Plug-In . SVG Version: 6.00 Build 0)  -->
<svg version="1.1" id="Layer_1" xmlns="http://www.w3.org/2000/svg" xmlns:xlink="http://www.w3.org/1999/xlink" x="0px" y="0px"
	 viewBox="0 0 50 27" style="enable-background:new 0 0 50 27;" xml:space="preserve">
<g id="XMLID_5_">
	<path id="XMLID_6_" style="fill:#010101;" d="M24.5,0.2C8.9,0.2,0.7,11.7,0.7,13.5c0,1.8,8.2,13.3,23.8,13.3
		c15.6,0,23.8-11.5,23.8-13.3C48.3,11.7,40.1,0.2,24.5,0.2z M24.5,23.7c-5.8,0-10.6-4.6-10.6-10.2S18.7,3.3,24.5,3.3
		s10.6,4.6,10.6,10.2S30.3,23.7,24.5,23.7z M24.5,13.5c-1-1.1,1.6-5.1,0-5.1c-2.9,0-5.3,2.3-5.3,5.1c0,2.8,2.4,5.1,5.3,5.1
		c2.9,0,5.3-2.3,5.3-5.1C29.8,12.2,25.3,14.4,24.5,13.5z"/>
</g>
</svg>
