<?xml version="1.0" encoding="utf-8"?>
<!-- Generator: Adobe Illustrator 19.0.0, SVG Export Plug-In . SVG Version: 6.00 Build 0)  -->
<svg version="1.1" id="Layer_1" xmlns="http://www.w3.org/2000/svg" xmlns:xlink="http://www.w3.org/1999/xlink" x="0px" y="0px"
	 viewBox="0 0 35 50" style="enable-background:new 0 0 35 50;" xml:space="preserve">
<path id="XMLID_2_" style="fill:#010101;" d="M3.6,48.9C4.3,46.5,5.5,43,7,38c6.6-1.1,9.4,0.9,13.6-6.8c-3.4,1.1-7.5-2-7.3-3.3
	c0.2-1.3,9.6,1,15.7-7.9c-7.7,1.7-10.2-2.1-9.2-2.7c2.3-1.3,9.1-0.6,12.8-4.2c1.9-1.9,2.8-6.4,2-8c-0.9-1.9-6.5-4.9-9.6-4.6
	c-3.1,0.3-7.9,12-9.3,11.9c-1.4-0.1-1.7-5.2,0.8-10c-2.6,1.2-7.5,4.9-9,8.1c-2.8,5.9,0.3,19.4-0.7,19.9c-1,0.5-4.3-6.2-5.3-9.2
	C0,25.8-0.1,30.4,3.9,36.6c-1.5,4.1-2.3,8.7-2.4,11.1C1.4,49.6,3.2,50,3.6,48.9z"/>
</svg>
