<?xml version="1.0" encoding="utf-8"?>
<!-- Generator: Adobe Illustrator 19.0.0, SVG Export Plug-In . SVG Version: 6.00 Build 0)  -->
<svg version="1.1" id="Layer_1" xmlns="http://www.w3.org/2000/svg" xmlns:xlink="http://www.w3.org/1999/xlink" x="0px" y="0px"
	 viewBox="0 0 50 50" style="enable-background:new 0 0 50 50;" xml:space="preserve">
<g id="XMLID_2_">
	<path id="XMLID_3_" style="fill:#010101;" d="M45.6,4.4c-4.6-4.6-8-3.9-8-3.9L21.6,16.5L3.2,34.9L0,50l15.1-3.2l18.4-18.4
		l16.1-16.1C49.5,12.4,50.2,8.9,45.6,4.4z M14.2,45l-5.2,1.1c-0.5-0.9-1.1-1.9-2.2-3c-1.1-1.1-2-1.7-3-2.2L5,35.8l1.5-1.5
		c0,0,2.8,0.1,6,3.2c3.2,3.2,3.2,6,3.2,6L14.2,45z"/>
</g>
</svg>
