<?xml version="1.0" encoding="utf-8"?>
<!-- Generator: Adobe Illustrator 19.0.0, SVG Export Plug-In . SVG Version: 6.00 Build 0)  -->
<svg version="1.1" id="Layer_1" xmlns="http://www.w3.org/2000/svg" xmlns:xlink="http://www.w3.org/1999/xlink" x="0px" y="0px"
	 viewBox="0 0 50 50" style="enable-background:new 0 0 50 50;" xml:space="preserve">
<path id="XMLID_4_" style="fill:#010101;" d="M44.6,17C40.3,7,33.4-0.6,29.9,0.8c-5.9,2.4,3.5,14-25.6,25.8c-2.5,1-3.2,5.1-2.1,7.6
	c1,2.4,4.5,4.9,7,3.9c0.4-0.2,2-0.7,2-0.7c1.8,2.4,3.7,1,4.3,2.5c0.8,1.8,2.5,5.8,3.1,7.2c0.6,1.4,1.9,2.6,2.9,2.2
	c1-0.4,4.3-1.6,5.5-2.1c1.3-0.5,1.6-1.6,1.2-2.5c-0.4-1-2.1-1.2-2.6-2.4c-0.5-1.1-2.1-4.7-2.5-5.8c-0.6-1.5,0.7-2.8,2.6-3
	c13.2-1.4,15.7,6.8,20.2,5C49.5,37,48.8,26.9,44.6,17z M43.1,33.1c-0.8,0.3-6-3.8-9.3-11.5c-3.3-7.8-2.9-14.8-2.1-15.2
	c0.8-0.3,5.9,4.6,9.2,12.4C44.1,26.6,43.8,32.8,43.1,33.1z"/>
</svg>
